<svg width="111" height="111" viewBox="0 0 111 111" fill="none" xmlns="http://www.w3.org/2000/svg">
    <path d="M54.921 110.034C85.359 110.034 110.034 85.402 110.034 55.017C110.034 24.6319 85.359 0 54.921 0C26.0432 0 2.35281 22.1714 0 50.3923H72.8467V59.6416H3.9565e-07C2.35281 87.8625 26.0432 110.034 54.921 110.034Z" fill="#0052FF"/>
    
    <!-- Path for letter B -->
    <path d="M10 30 V10 H20 C30 10, 30 20, 20 30 H10 Z M10 30 V50 H20 C30 50, 30 40, 20 30 H10 Z" fill="#ffffff"/>

    <!-- Path for letter A -->
    <path d="M25 50 L20 10 L15 50 Z M20 30 H25 L25 40 H15 Z" fill="#ffffff"/>

    <!-- Path for letter S -->
    <path d="M35 10 C45 -5, 55 -5, 65 10 C55 15, 45 15, 35 30 C45 35, 55,35,65,30 C55,45,45,45,35,40 Z" fill="#ffffff"/>

    <!-- Path for letter E -->
    <path d="M70 10 V50 H60 V30 H70 H60 V10 Z" fill="#ffffff"/>
</svg>
