<svg width="200" height="111" viewBox="0 0 200 111" fill="none" xmlns="http://www.w3.org/2000/svg">
    <!-- Logo Path -->
    <path d="M54.921 110.034C85.359 110.034 110.034 85.402 110.034 55.017C110.034 24.6319 85.359 0 54.921 0C26.0432 0 2.35281 22.1714 0 50.3923H72.8467V59.6416H3.9565e-07C2.35281 87.8625 26.0432 110.034 54.921 110.034Z" fill="#0052FF"/>

    <!-- Path for letter B -->
    <path d="M120 20 H130 C135 20, 140 25, 140 30 C140 35, 135 40, 130 40 H120 Z M120 40 V60 H130 C135 60, 140 55, 140 50 C140 45, 135 40, 130 40 H120 Z" fill="#ffffff"/>

    <!-- Path for letter A -->
    <path d="M145 60 L140 10 L135 60 Z M140 35 H145 L145 50 H135 Z" fill="#ffffff"/>

    <!-- Path for letter S -->
    <path d="M160 20 C170 -5, 180 -5, 190 20 C180 25,170,25,160,40 C170,45,180,45,190,40 C180,55,170,55,160,50 Z" fill="#ffffff"/>

    <!-- Path for letter E -->
    <path d="M195 20 V60 H185 V45 H195 H185 V30 H195 V20 Z" fill="#ffffff"/>
</svg>
