<svg xmlns="http://www.w3.org/2000/svg" viewBox="0 0 180 40" width="180" height="40">
  <path fill="#ffffff" d="m58.336 7.978-.748 3.477a13.2 13.2 0 0 0-4.55-.774c-1.713 0-3.368.497-3.368 2.236 0 1.488 1.215 2.201 4 3.368 3.522 1.435 5.876 2.87 5.876 6.603 0 4.248-3.666 6.238-7.834 6.238a20.2 20.2 0 0 1-6.456-1.079l.774-3.521a15.7 15.7 0 0 0 5.546 1.13c2.346 0 3.64-.827 3.64-2.455 0-1.63-1.268-2.347-4.164-3.522-3.367-1.352-5.721-3.082-5.721-6.322 0-4.402 3.833-6.163 7.45-6.163a18.7 18.7 0 0 1 5.555.784M77.584 20.894c0 5.102-3.174 8.223-7.975 8.223-4.881 0-8.002-3.121-8.002-8.223s3.12-8.17 8.002-8.17c4.88 0 7.975 3.063 7.975 8.17m-4.195 0c0-2.954-1.24-4.997-3.78-4.997s-3.78 2.043-3.78 4.997c0 3.081 1.24 5.05 3.78 5.05s3.763-1.986 3.763-5.05zM80.46 13.084h4.165v2.096h.052c.801-1.603 2.734-2.457 4.745-2.457 3.52 0 5.796 2.263 5.796 5.723v10.332h-4.22v-8.77c0-2.566-.581-4.11-2.9-4.11-1.625 0-3.394 1.157-3.394 4.357v8.523h-4.22zM112.881 22.175H102.12c.25 2.676 2.455 3.808 5.162 3.808a12.4 12.4 0 0 0 3.75-.594l.471 3.081c-1.536.43-3.124.643-4.718.634-5.603 0-8.855-3.341-8.855-8.17 0-4.746 2.979-8.224 7.887-8.224 4.555 0 7.064 3.037 7.064 7.757zm-7.13-6.604c-1.99 0-3.367 1.488-3.618 3.672h6.817c.013-2.214-1.254-3.672-3.199-3.672M115.639 7.009h4.22v3.671h-4.22zm0 6.075h4.22v15.694h-4.22zM138.073 28.778h-4.155v-2.095h-.053c-.801 1.598-2.702 2.456-4.718 2.456-3.521 0-5.823-2.263-5.823-5.723V13.084h4.221v8.747c0 2.54.634 4.112 2.927 4.112 1.655 0 3.367-1.158 3.367-4.363v-8.496h4.22zM141.66 13.084h4.142v2.122h.057c.77-1.572 2.508-2.483 4.524-2.483 2.201 0 3.834.854 4.578 2.54h.083c.995-1.76 2.896-2.54 4.842-2.54 3.961 0 5.822 2.29 5.822 5.723v10.332h-4.22v-8.77c0-2.54-.331-4.11-2.641-4.11-1.435 0-2.98.88-2.98 3.367v9.513h-4.22v-8.853c0-2.51-.357-4.028-2.677-4.028-1.602 0-3.08 1.158-3.08 4.306v8.575h-4.221zM20.323 27.735a9.99 9.99 0 0 1-9.388-2.642 9.686 9.686 0 0 1-1.57-12.062 16.8 16.8 0 0 1 2.72-3.354c3.322-3.31 9.422-9.333 9.422-9.333A18 18 0 0 0 .536 13.648 18.014 18.014 0 0 0 12.797 35.25z"></path>
  <path fill="#ffffff" d="M15.69 8.272a9.98 9.98 0 0 1 9.387 2.642c3.292 3.293 3.935 8.18 1.558 12.044a17 17 0 0 1-2.72 3.36c-3.323 3.305-9.423 9.332-9.423 9.332a18 18 0 0 0 21.002-13.3A18.013 18.013 0 0 0 23.198.74z"></path>
</svg>
